/* XPM */
static char *out[] = {
/* columns rows colors chars-per-pixel */
"64 64 121 2 ",
"   c #7E522E",
".  c #815733",
"X  c #835936",
"o  c #865D3B",
"O  c #88603F",
"+  c #8C6444",
"@  c #8F6847",
"#  c #8E6A4B",
"$  c #916B4C",
"%  c #926F52",
"&  c #967254",
"*  c #987454",
"=  c #967459",
"-  c #997759",
";  c #9C795C",
":  c #9E7E64",
">  c #A07F61",
",  c #A28264",
"<  c #A3856B",
"1  c #A68A73",
"2  c #A98C73",
"3  c #A98F79",
"4  c #AD937C",
"5  c #B19477",
"6  c #B3977B",
"7  c #B4997E",
"8  c #AE9581",
"9  c #AF9885",
"0  c #B19782",
"q  c #B49A84",
"w  c #B99E83",
"e  c #B49D8A",
"r  c #BAA286",
"t  c #B4A08F",
"y  c #BBA38C",
"u  c #BEA888",
"i  c #B7A292",
"p  c #BBA593",
"a  c #BEA897",
"s  c #BAA798",
"d  c #BEAB9B",
"f  c #C3AB8C",
"g  c #C9B08E",
"h  c #C2AC93",
"j  c #C2AD9C",
"k  c #C7B192",
"l  c #CCB594",
"z  c #CEB897",
"x  c #C5B59D",
"c  c #CBB69B",
"v  c #CEB99B",
"b  c #D0B897",
"n  c #D2BB9C",
"m  c #C1AFA1",
"M  c #C4B4A2",
"N  c #C9B6A4",
"B  c #C7B9A4",
"V  c #CABBA4",
"C  c #C5B6AA",
"Z  c #C6B9AC",
"A  c #CABDAB",
"S  c #D4BFA2",
"D  c #D0BDA8",
"F  c #CCBDB1",
"G  c #D0BFB3",
"H  c #CFC0A7",
"J  c #CDC1AC",
"K  c #D5C1A5",
"L  c #D8C3A6",
"P  c #D4C4AC",
"I  c #D9C6AC",
"U  c #D7C8AF",
"Y  c #DBC9AE",
"T  c #CEC1B6",
"R  c #CEC3BA",
"E  c #D4C6B2",
"W  c #D8C7B0",
"Q  c #D6C9B4",
"!  c #DCCCB5",
"~  c #D2C5BB",
"^  c #D5C9BE",
"/  c #DDCEB9",
"(  c #DFD0B7",
")  c #DED1BC",
"_  c #E0CFB6",
"`  c #E0CFB9",
"'  c #E2D0B7",
"]  c #E1D2BC",
"[  c #D4CBC3",
"{  c #D9CDC3",
"}  c #DED3C1",
"|  c #D7D0C9",
" . c #DBD3CB",
".. c #DDD7D2",
"X. c #DEDAD5",
"o. c #E3D6C2",
"O. c #E5D9C5",
"+. c #E8DCC7",
"@. c #E2D7CD",
"#. c #E5DACA",
"$. c #E9DECC",
"%. c #E4DBD5",
"&. c #EADFD0",
"*. c #E1DEDA",
"=. c #E8DFD9",
"-. c #EBE0CF",
";. c #EDE2D3",
":. c #E4E0DE",
">. c #E9E2DC",
",. c #F0E5D6",
"<. c #E6E4E2",
"1. c #E9E7E5",
"2. c #EDE9E6",
"3. c #EDECEB",
"4. c #F0EBE7",
"5. c #F1EEEB",
"6. c #F4F0EE",
"7. c #F5F4F3",
"8. c #F8F6F5",
"9. c #FAF8F7",
"0. c #FEFEFD",
/* pixels */
"J ! ! Q W ! ! W ! ! U / ! ! ! ! ! / ! / _ ! ! ! ! ! ! ! ! W ! ! ! ! ! ! ! ! ! ! ! I P W ! _ ! / ! / ` ` _ ` ] ! ` / / ! Y Y ! _ ",
"P ( ! ! / W ! ! ! ! ! ! ! ! ` ! ! / _ _ ! ! ! ! ! ` ! ! _ ! ! ! ! ! ! ` ! / ! Y W ! W ! W I _ / _ ! / ! / ' ! ` / ! ! ! ! ! I I ",
"J ! U U U P U W U I W W ! ` _ ! _ ] / ( ` ! ! ! W ! ! W ! _ ` _ ! / _ / ! ` ! ! ! ! ! ! ! ! ! / _ / ! ! ! / W / ! ! Y Y Y I I I ",
"H H P P P U I U U Y ! / ` ! ! ! ! / ! / _ ! ! ` ` ` / ! / / ] ` _ ! ` ` ` ! _ ! ! ` ! _ _ ! ! ` ` ` ` _ _ / _ _ ' ] _ / ! ! ! / ",
"H U U U W U I U _ G ! ` ! ! ! ! ( ! ! ! ! W ! ! ! ! ! _ _ / ` ` ] ] ] ` ! ! ` ! ! _ ! ! / ! ` ] ] ` ] ] ] ] ] ] ] ] ] ( / ! _ Y ",
"Q ( ( / / ' / W _ ! ! ! ! ! / ! ! ( U ( ! Y ! Y W ! / / ] _ ` _ / ] ] } ` _ ! ! ! ! ! ! ! / _ _ ` ] ] ] ] ` ` ] ` ] ] ] ' ! ( ! ",
"Q ( / ` / ! ! ! ! ! ! / ! Q ! ! ! U ! U Y ( ! ! ! ( / / / _ _ / / / ` / ! ! ! ! W W W W Y ! ! ! ! _ ` ` _ ` _ / _ ` ] ' / ( Y Y ",
"Q ] ` ] ] ` _ ` ` ! ` ` ` ! ! ! U ( ! ( U ! ! ! W ) ' ' _ ] / / / ] ! _ I ! Y P I I ! I ! _ ! / / ` ` ` ` ` ` ` ` ] ' ( ! Y ! ( ",
"( ' ] ] ] ) ( ( ` ` ` ` ` ! W ! ( ( ( / ! ! U ! ! ( ( ] ] ] ] ] ] ) ) ` ! / _ / _ _ / _ _ ` ] ] ] O.] ] ] ] ] ] ] ] ] ] ] ] ] ' ",
") -.O.O.O.) ) ( { ` ` ` ` ` / ! ( ( ( ) ] ( ] ' / ' ] ] ) ] ) ] ) ) ` ] ` ` ! / ! _ / ] ! ! _ ` ) ) ] ] O.] O.o.] o.o.] O.] ] ] ",
") -.] O.-.] ] -.o.o.` ` ) ) ] ] ] ( ) ( ) ] ] ] ] ] ] O.] ] O.) ] ] / / / / ] ] _ ! W / ! ! / ` ) ) ] O.O.] o.] ] ] o.o.] ] ] +.",
") -.O.-.-.] } O.o.o.o.o.] o.o.o.] O.O.] ] ] O.O.O.] ] ] ] O.] ] ) ) ` ` ] / ) ) / / ! / / / ] ` ] ] ] ] O.] O.] o.] ] o.O.O.] ] ",
") -.) -.-.} O.-.#.#.#.O.O.O.O.o.O.} -.) O.#.O.O.] ) ] ) ] o.] ] ) ) ) / ) ] ) ] ' / ( ` ] / _ ` ' ] ] ] ] ] o.] ] ] ] ] ] O.] +.",
"} -.-.} O.O.O.O.O.O.O.O.O.O.+.O.] -.) -.O.O.} O.O.) ) O.O.] o.] ] ] ] ) / ) o.) ] ) ) ( / _ / _ ' ( ( ( ] ) ] ) ] ] ] ] ] ] ] ] ",
"} O.O.O.} O.O.O.O.O.O.O.O.O.O.O.} } O.} O.O.} } } } O.O.o.o.o.] ] ) ) ) ' ) ) ) ] ) ) ) / / / / / / / / ( ) ( ) ] ) ) ) ] ] ] O.",
"Z J J J J J J B J J J A J A A A J J J J J J J J J J J J A A B B B H B V V B V V B A B A B V B B V B x B B M x M M B B M M c N N ",
"} #.-.#.#.#...O.$.#.@.$.$.#.#.#.#.#.#.} } } } } #.#.#.O.O.O.#.O.o.#.o.#.o.O.O.O.o.o.o.o.o.` o.o.] ) } o.Q E Q E J Q E E E T Q U ",
"-.,.;.;.-.;.;.;.;.;.;.;.;.;.;.;.;.-.;.O.-. .#.$.&.&.&.&.&.&.#.w # $ y #.;.&.$.$.$.$.#.$.+.O.+.#.$.+.$.$.) ^ ) Q Q ) ) ) ) ) ^ ) ",
"X.-.-.-.;.-.-.;.,.-.;.;.;.-.;.-.;.;.-. .%.#.@.;.&.,.;.;.#.c % j 5.8.2 * w +.+.$.$.+.$.$.$.#.O.$.O.o.O.-.) Q ( J Q ) ) ^ Q ) ( ) ",
"-.-.-.;.-.;.;.;.,.,.;.-.;.;.;.;.;.;.;.-.) O.@.;.&.,.,.O.2 6 5.0.0.0.0.m   # j o.O.+.$.$.$.$.+.-.$.+.$.$.} Q Q ^ ^ Q ) ) } ) ^ ) ",
"-.;.;.;.;.;.,.;.;.,.-.;.,.;.;.;.,.,.,.&.} #.#.;.;.;.;.2 s 7.0.0.0.0.0.0.0 8 1 0 P #.#.&.$.$.+.+.$.-.$.$.) T ^ Q Q ^ ^ } ) } ) ^ ",
"#.,.;.;.,.,.,.;.;.;.-.;.;.;.;.,.,.&.,.&.$.;.;.&.&.$.&.& R ..7.9.9.0.0.0.6.8 ..m 5 h ` $.$.#.$.$.$.;.;.$.} E ) ^ ) ) ) ) ) ) } ) ",
"-.;.;.;.;.;.,.;.;.;.;.;.;.,.;.,.,.&.&.f h V $.;.$.#.E ; [ i <.<.3.0.0.0.0.=.1.5. .5 3 D #.$.&.$.-.;.$.&.} Q ) ) ) ) ) } } ) ) ) ",
"-.>.,.,.;.;.,.;.;.,.;.,.,.,.;.;.,.,.c % C q q e q q e ~ 1.8 [ T 3.0.0.0.0.4.G h j p 3 , ! ,.;.&.;.;.;.;.} ^ ) ) } ) ^ ) ) ) ) ^ ",
"#.;.;.;.;.;.;.>.,.,.;.;.;.;.>.;.&.,.@ > 3.*.a ; 4 Z | 8.9.Z 8 M 7.0.0.4.e e D ~  .%.>.a c ;.&.;.;.;.;.;.} ) ^ ) ) ^ ) Q ) ^ Q ^ ",
"#.;.;.;.;.;.;.;.;.;.,.;.;.&.;.;.&.D 1 # 1.0.7. .4 i :.9.0.1.d ~ 0.0.7.2 A >.7.9.0.0.0. .< ,.,.;.;.-.-.-.} Q Q ) ^ ) ) ) ) ) ) ) ",
"#.#.$.-.-.;.;.;.;.-.-.;.-.-.-.;.&.> %.% *.7.0.0.3.8 m 7.0.0.9.9.0.0.j j 0.0.0.0.0.0.0.%.o D &.,.-.;.-.-.} E Q ( Q ) ) ) ) } ) ) ",
"#.-.-.$.$.$.-.$.$.$.$.$.$.-.-.;.&.+ 9.a Z 1.7.9.0.7.: R 0.0.0.0.0.%.2 4.0.0.0.0.0.0.0.A N o $.$.-.-.-.-.) E Q Q Q Q ) ^ ^ ) ) } ",
"} -.-.-.$.-.;.-.$.$.$.$.$.;.$.-.o.> 0.2.: =.*.m @.0.@.: 5.0.0.0.0.a j 5.0.0.0.0.0.0.0.2 >.B 5 O.) O.O.-.) J Q Q ! ^ ) ) ) ) } } ",
"O.;.-.;.-.-.&.$.$.-.$.$.$.$.-.-.D j 0.7.0 [ Z C 5.0.9.% <.5.7.0.0.j : p 8.0.0.0.0.0.} 4 6.8.& ( ] O.] ) Q Q Q ! ( ! Q ^ ) ) } } ",
"#.-.;.-.$.-.&.$.$.$.$.$.$.$.#.$.N G 0.0.{ e C s { 3.0.$ X.1.1...^ 8 m 9 j 0.0.0.0.6.8 R 0.0.a k O.) ] ] Q U ! Q Q Q Q ) ^ ) ) ) ",
"^ } } } } } } } o.) ) / ) ) ^ ( w G 0.0.=.1 m t m =.0.: s Z C e e , 9  .& 4.0.0.0.T i X.0.0.d a ) ) Q Q J J T J J J J J E E E E ",
"E ^ / ! ! Q E E E P P P P P P P y y 0.0.4.a Z ..<.8.0.2 3 d m ~ 4.{ 8 Z 3 F 0.0.<.e ~ =.| 9.> D ! Q Q E E E Q E Q E E E Q E Q Q ",
") o.o.] ! W W I ! I U K E W E W P & 0.0.8.F Z 1.7.0.0.< R :.5.9.0.0.%.y = A 0.0.A s ..s F 1.+ } } ! / / ^ / ^ ` / / / ] / { ) / ",
"Q ] ] ] U I ! ! W ! Y K I W ` ` / @ 5.0.8.F Z 3.0.0.0.3 T 1.3.0.0.0.0.%.$ 4.0.4.d q 9 M *.| % } / / / } o./ / { / / / ! ^ / / / ",
"P ! / / W ! W I ! W P K I ! ` ] ] 5 ~ 0.5.m R 8.0.0.0.m i 1.1.1.5.8.7.e m 0.0.2.d F *.:.1.s f ` ` ] ` { o./ / ` { ) / / ) / / / ",
"Q / ) / ! U I ! Y S K I I W ! ` / P ; 0.1.q *.0.0.0.0.6.e 1.:.[ i : = y 0.0.0.8.j m *. .| + ! ] o.} o.o.} ! ^ / / / / / ( ) ] ) ",
"P ! U P P I W I I K P P K I W ! / W . 9.=.# 1 G 2.9.0.0.5.| 3 1 F 2.0.0.0.0.0.0.M + % & - 2 / ` / ` ` o.o./ / ` / ) ) ) ) ] / ] ",
"A P K K K P P U K K S D K P I W ! ! & %.=.1 F 8 3 C {  .[ 8 ~ 0.0.0.0.9.0.9.9.9.^ q S ` _ / ` ) / ` ` } ` / ! / ) ) ) / / / / ] ",
"V V K P P K U U P K K D D P P W ! / k q %.< R C ~ d 9 7 3 1 6.7.7.7.5.[ ^ ^  .1.T 0 D ` / / { ` / / / / ! / / / ] ) / / / / / ] ",
"c K K P E ! ` ` _ ! I ! I U K U E ! ! - a < X.Z a ..1.0.2.9 <.1.1.1.<.[ C m d d 4 y / ` / ! ! ! / ` / ` / ! o./ / / { ] ] ] o./ ",
"V K W ! / ] ] / ! ! / _ ! W I I E W ! h > : *.<.Z [ 1.0.8.Z <.<.1.1.1.X.m 3 1 4 p U / / _ / ! ! ` ! / ` / / ! ` / / ` ` ) o.O.o.",
"W ! / ` / ` ` ` ! / / / ` / ! ! ! ` ` / S q i %.<.2.7.0.0.1.%...<.1.1...d 3 , P ! ! / / / U ! / ! ! ! ! / / / / ` ` } / } o.} ` ",
"! / _ ! ! ! ! / _ / / ' ` ] _ / ` ! ! ` ! P w 2 ^ 9.0.>.m : = 3 [ <.X.F , # 7 ! ! ! ! / / W ! ( ! ` ! / ` { o.` / } ` o.} o.` } ",
"! ) ! / o./ / ` ) / ! ) / K P W W U E / ! W W x > < ; > y S 2 X O % % 3 % % K ! ` / / ) ) ) ) ) ` ! / ! ! / ` ` / / / { o.{ ` ` ",
"Q o.} / / / / / / I K K K W / ] ] ] o.o.O.O.] ] / P W / ] ] / u 1 [ F + 7 A A U E P E / ) ] } ) o.o.} } / E W ! ` ` ] ` } ` / ! ",
"Q / / ) ) ) / ! Q W / ) o.] o.o.o.] o.o.O.o.o.] } o.#.o.] ] ) ( q @ $ U ] ] o.) o./ / Q / / ! ! / Q / ` ! ! ) ! U W ` o.o./ W ! ",
"Q / / ! / / / / / / / / / / / / / ) } ) / / / / / / / ) ! U P U T V S P I W ! / / / / / / / / ^ ^ ! / / U Q ! Q ! W W ^ ! Q Q ! ",
"M V V V V V V V V V H V V V V V V V B V B V V c N V x B x c x x z V d z d x x x x x x z z B z z c V B V x H J J E J U J U J U E ",
"U / ! / / / ! / ! _ ! / ' ( / ] ] _ / _ _ / _ ! W W W W Y ( U U U U U Y L U U K U U H U U U U L K I I I V ) O.O.#.O.] ] O.O.O.O.",
"W _ ' ] / ` ` ] ] ' _ / _ ] ] ] _ ! _ _ ! _ ! Y Y U U ! I Y I L Y U L L L Y U K S S L L L L n n S K K K z ) O.O.-.-.] -.+.O.-.O.",
"E / ! / _ _ / _ ] ] _ / / _ ` ` _ ! _ ! Y Y ! Y Y Y Y Y I I L K K K K K H n n H n n n L L H L L S S S K z ] ] O.O.O.-.] +.+.O.O.",
"P ! W ! ! ! ! ! / / / ! ! ! _ _ _ ! ! I Y Y _ Y ! ! Y Y I L L K n n z c z d z n n n K K L n n n n S L L b ] ] -.O.O.O.O.O.O.O.O.",
"W ! ! ! ! ! / _ _ _ _ / ! ! / ` ! ! _ ! ! ! ! ! _ ! Y I I I I K K z v z n z n z n n n n n n n L n n S n k ' +.-.+.O.O.O.O.-.-.+.",
"E ! / / / ` ` ! ! ! ( / ' ! ! / ! ! ! ! _ ! ! ! Y U Y ! Y Y I I L L P K H n n z z n n n n n n n n l l l u ) ] +.-.O.-.O.-.O.O.O.",
"E ! ! ! ` / / / _ _ / / ! W ! / ` / ! ! _ _ ] ] ] ' / _ Y I I I I I I P L L K H n n n n b n b b b l g f r ! O.] O.O.o.o.o.} O.O.",
"J ! ! W W W ! / / / / ) / / ! / / ` / / ! ` ] ] ) ] ( ( ' Y Y ' Y I L L P K K K L L n n n n n b z l l z k ( } O.O.O.O.O.O.O.' +.",
"E Q Q E E U Q ! ! / ! W Q ! W Q ! ) / _ / ] ] ] ( ] / ] ' ' ' Y Y Y Y I I I L L L L L n L n n n z z z n k ( O.O.+.O.O.O.O.O.+.+.",
"Q ! ! ! ! ! ! / / / / ! ! / ) ) _ / ] ` ` ` ] ] ] ' ' ( ' ' ' ' ( ' Y Y Y _ Y _ L L L L n n n L n z z n k ( O.+.+.+.+.+.+.+.+.+.",
"Q / / / / / ' ] ) / ] / / _ ` _ ] _ ' ] ] ` ] ] ] ] ' ( ' ' ' ' ' ' ' ' _ ' ' ' ' ' Y Y L L L n n z z z k ( O.O.O.O.O.+.O.+.+.+.",
"U / ! _ ( / ' ' ' ) ' ! / _ _ ! _ ` ] ] ] ] ] ] ] ] ] ] ] ] ] ] ] ] ' ' ' ' ' ' ' Y Y Y L L K n n z z z k ( O.O.o.o.o.} O.O.O.O.",
"I / _ _ ' ! / ! / _ _ ! ! Y ! _ _ _ _ ] ] ] ] +.] ] +.] ] ] ] ] ' ' ' ' ' ' ' ' Y Y Y L L L L n n n z z k ) } ( ( } o.O.o.o.( O.",
"I _ / / ! ( ' ' ' ' ] ' ' ' ' ' ] ] ' ] ] ] ] ] ] +.+.] ] ] ] ' ] ' ' ' ' ' ' Y Y Y Y Y Y L L K n z l l x ( o.o.O.O.O.O.O.O.o.O.",
"P W Y U ! ! W W W W W ! W ! ! W _ _ ` ` ' ' ! _ ' ] ] ' ' ( ( ( ' ' ' Y _ _ Y L L L L L L L K n n z g g u } O.} } } } } } } ( ( "
};
