/* XPM */
static char *out[] = {
/* columns rows colors chars-per-pixel */
"64 64 107 2 ",
"   c #BCA584",
".  c #BEA888",
"X  c #949BA3",
"o  c #999FA6",
"O  c #9EA5AE",
"+  c #9FA6B0",
"@  c #A2A7AF",
"#  c #A5A9AE",
"$  c #AFAFAF",
"%  c #BFB5A5",
"&  c #B6B2AC",
"*  c #A1A7B0",
"=  c #A3AAB3",
"-  c #ACAEB1",
";  c #AFB1B4",
":  c #ADB3BB",
">  c #B3B3B2",
",  c #B9B6B1",
"<  c #BCB9B3",
"1  c #B2B6BB",
"2  c #B3B9BE",
"3  c #B9B9BA",
"4  c #C5AD8C",
"5  c #C9B08E",
"6  c #C7B192",
"7  c #CCB594",
"8  c #CEB897",
"9  c #C3B49E",
"0  c #CBB79B",
"q  c #CFB898",
"w  c #D0B897",
"e  c #D2BB9B",
"r  c #C4B7A0",
"t  c #C6B8A3",
"y  c #CCBCA4",
"u  c #C1B7A8",
"i  c #C3BBAC",
"p  c #CBBFAB",
"a  c #D4BFA2",
"s  c #D0BFA8",
"d  c #C4BDB5",
"f  c #C4BFB9",
"g  c #CDC1AC",
"h  c #D6C1A4",
"j  c #D8C3A6",
"k  c #D4C4AD",
"l  c #D9C6AC",
"z  c #D7C8AF",
"x  c #DCC9AE",
"c  c #CDC3B3",
"v  c #C6C1BA",
"b  c #CCC4BA",
"n  c #D4C6B2",
"m  c #D9C7B0",
"M  c #D6C9B4",
"N  c #DCCCB5",
"B  c #D5CABA",
"V  c #DDCEB9",
"C  c #DFD0B7",
"Z  c #DED1BC",
"A  c #E0CFB6",
"S  c #E0CFB9",
"D  c #E2D0B7",
"F  c #E1D2BC",
"G  c #B6BBC2",
"H  c #BABEC4",
"J  c #BCC0C6",
"K  c #BDC3C9",
"L  c #C5C5C5",
"P  c #C9C6C2",
"I  c #CDC9C3",
"U  c #C2C6CB",
"Y  c #C4C8CE",
"T  c #C8C8C8",
"R  c #D6D0C7",
"E  c #DED3C1",
"W  c #DCD5CB",
"Q  c #C7CBD1",
"!  c #C9CDD1",
"~  c #CED1D4",
"^  c #D1D4D7",
"/  c #D2D4D8",
"(  c #D6D9DB",
")  c #D9DCDE",
"_  c #E2D5C1",
"`  c #E6DAC5",
"'  c #E8DCC7",
"]  c #E5DACA",
"[  c #E9DECB",
"{  c #E4DBD0",
"}  c #E8DED0",
"|  c #ECE1CF",
" . c #EDE2D3",
".. c #F0E4D6",
"X. c #DCDEE1",
"o. c #DFE1E3",
"O. c #E3E4E6",
"+. c #E4E6E9",
"@. c #E7E9EB",
"#. c #EAECED",
"$. c #EDEFF0",
"%. c #EFF0F1",
"&. c #F6F6F6",
"*. c #F6F8F7",
"=. c #F6F7F8",
"-. c #F7F8F8",
";. c #FEFEFE",
/* pixels */
"g N N m N N N N N N m V N N N m N N S S S N m N S N N N N N N N N x N V N N N N m m l N N N N N N N S S D F D N S N N N x m A A ",
"k C C N N m N m N N N N N N S S N V S N N N A N N N S N S N m N N N N S N N N x m N m m m l S V N S N N N F N V N S N N N N l l ",
"k x m z k z m m z l m m N N N N V S C C S N N N N N N m N S F N N N V N N N N N N A N N N N N S N N N C N N N N N N x N z l l l ",
"g g k g k z z l z x N N S N N S V C N N S N N S V N N N N S S S S S S F S A S N N S N S S N N S F S S F S N A S F F S N N N N N ",
"g k m z m z z z S s N V N V N N N C M N N z x N N N N S S N S F Z F F F N A N N N A A N S N S S F F F F F F F F F F F C S A N x ",
"z C C N C C N m N N S N N N V N N C N N N N C N m N N S F D S F Z Z F F S S N N N N N m N V S S S S F F F S S F F F F D D N C N ",
"N C V S V N N N S N N S N N N N z z z x x N N N N C N V N S S N V V V S A N N x m m m m x N N N N S S S S S N N S S F S N N x x ",
"M F F F F S S S S N N S V N N N N C C N N N N N m C F F S F N S V Z V A m m m l l l N m N N N N S S S S S S S F S S D C C N N C ",
"Z F ` F F F Z C N S S S S N m N N D V N N N m m N N C F F Z F F F Z Z F V V S S S S S S S S _ F F F F F _ F F F F _ _ F F F D F ",
"F ` ` F _ _ Z F S E S S S S N N N V N F F F F S N F F F F F F Z F C V S S C N N N N N F N m S S F F F _ ` F _ _ F F F _ F ` F F ",
"_ ` ` ` ` ` _ _ _ E S S S V F _ Z F Z C F Z F F F F F _ F F _ _ F F S V V V V C V N N N V V N S F Z F ` _ _ _ F _ _ F F ` F F ` ",
"_ ` ` ' ` ` ` ` _ ] _ _ _ _ E _ _ _ _ Z F _ _ _ _ _ F Z F _ F Z Z Z V V Z V C Z V V N N V N S N F F F _ F F _ _ F F _ _ F ` F F ",
"W ` ` ' ` ` ` ` ' ' ` E b f v f v v v v v v v v v v v v d d d d f f < v f f < v f d < d d d d d v n Z Z _ _ _ _ S _ _ F F F F ` ",
"_ ` ] ' ` ` ` ` ` ` R 3 * + + * O O O O O O O O O O O O O O O O O O O O O O O O O O O O O O O O O # < M S S S S _ F S _ F ` F ` ",
"E ] ' ` W ` ` ` _ _ - O + O + + O O O O O O O O O O O O O O O @ O O + O O O O O O O O O O O O + O O O < V N S V S _ S S S S F F ",
"i g g c g g p g p i O O O + O O O O O O O O O O O O O O O O O @ O O O O O O O O O O O O O O O O @ O O # % r r r 9 r r t t r t y ",
"W ' ] ] ' ] ] W ] 3 O O O O O O O * H ~ ^ ~ ^ ^ ^ ^ ^ ^ ^ ^ ^ ^ ~ ~ ^ ~ ^ ~ / ^ ^ ^ Q : O O O O O O + O d g m n k n n n n n B n ",
"}  . . . . . . .} - O O O + O O K @.%.&.&.&.&.&.&.&.&.%.&.&.%.&.&.&.&.&.&.&.&.&.&.&.%.%. .@ O O O O O O d M V B M V V V V V V V ",
"]  . .|  .|  . .} * O O O + O Q %.&.&.&.&.&.&.&.&.-.&.&.&.&.&.&.&.&.&.&.&.&.&.&.&.&.&.&.&.#.@ O O O O O # g V g V V B V V Z V Z ",
"'  . . . .|  . .I O O O + O 2 O.&.&.*.&.&.&.&.&.&.&.&.-.&.&.&.&.&.&.&.&.&.&.&.&.&.&.&.&.&.=.) o O O O + O c M B B B V E E Z R B ",
" ... . . . ... .1 O @ O O O Y &.&.&.&.&.&.&.&.&.&.&.&.&.&.&.&.&.&.&.&.&.&.&.&.-.&.&.&.&.&.&.#.@ O O O O O d V B B V V R Z E B Z ",
"]  . . . ... .[ - O O O + * ~ &.&.-.&.&.&.&.&.&.-.&.&.&.-.&.&.-.&.&.&.&.&.*.&.&.&.&.&.=.&.&.#.J O O O O O & V B V V V V V Z E E ",
"] .. . . . ...W = @ + O O = ( &.&.&.&.&.&.&.&.&.&.&.-.&.&.&.&.&.&.&.&.&.&.&.&.&.&.*.&.&.&.&.&.~ X O O O O # C Z V E Z E R Z Z Z ",
"} .... . . . .P * O O + + 2 O.&.-.&.&.&.&.&.&.&.&.&.&.&.&.&.&.&.&.&.&.=.&.=.&.&.&.&.&.&.&.&.&.) X O O O O O B Z E V E V V Z Z B ",
"}  . . . . . .1 * O O O O H $.&.&.&.&.&.&.&.&.&.&.&.-.&.&.&.&.&.&.&.&.&.&.&.&.&.&.&.&.&.&.&.&.{ X O O + O O v V V R V B V R N B ",
"]  . .} ....] ; O + O + @ U &.&.&.&.&.-.&.&.-.&.&.&.&.&.&.&.-.&.&.=.&.&.-.&.&.&.&.&.-.&.&.&.&.O.@ O O O O O $ V N V V V V V V V ",
"] [ }  ...| R = + O O + = ! &.&.&.-.&.&.-.&.&.&.&.&.&.&.-.&.&.&.&.&.&.=.&.&.-.&.&.&.&.&.&.&.&.#.J O O O O O @ M V V V E E E E E ",
"] | [ [ [ } v @ O O + O = ( &.&.&.&.&.&.&.&.&.&.&.&.-.&.&.&.&.&.&.&.&.&.&.-.&.&.&.-.&.&.-.&.-.&.! X O O O O O c n B B V V V V E ",
"_ [ [ [ | [ 3 * O + + O : O.&.&.&.&.&.&.&.-.&.-.&.&.&.-.&.&.&.-.&.&.&.&.-.&.-.&.&.-.&.&.&.&.&.&.~ X O O O + O d N B V V V V E E ",
"`  .}  . .] > O + O O + G $.&.=.-.&.&.&.&.&.&.&.&.-.&.&.&.&.&.&.&.&.&.&.&.&.&.&.&.&.&.&.&.&.&.&./ O O O + O O , V V B V V E E E ",
"] | | [ [ ] 1 @ + + + + H =.-.-.-.-.-.-.-.-.-.-.-.-.-.-.-.-.-.-.-.-.-.-.-.-.-.-.-.-.-.-.-.-.-.-.) # O O * + * > n M N B V E E V ",
"B W _ E E R 1 # * = = = K -.;.;.;.;.;.;.;.;.;.;.;.;.;.;.;.;.;.;.;.;.;.;.;.;.;.;.;.;.;.;.;.;.;.;.X.# O # = = * > g g g g n n n n ",
"n V B V m n , = = = = = H &.;.;.;.;.;.;.;.;.;.;.;.;.;.;.;.;.;.;.&.;.;.;.;.;.;.;.;.;.;.;.;.;.;.;.( o * = = = = < M n n n M n n B ",
"V _ _ F N m < = = = = = : O.;.;.;.;.;.;.;.;.;.;.;.;.#.$.;.;.;.+.^ #.+.&.;.;.;.;.;.;.;.;.;.;.;.;.^ o = = = = = v V V V _ V V V V ",
"B _ F S m m d = = = = = = ( ;.;.;.;.;.;.;.;.;.;.;.;.K U ;.;.;.%.+.+.H O.;.;.;.;.;.;.;.;.;.;.;.-.Y O = = = = = B V V V N V V Z V ",
"k m V N N N n - = = = = = ~ ;.;.;.;.;.;.;.;.;.;.;.;.Q : *.#.+.=.;.o.1 #.;.;.;.;.;.;.;.;.;.;.;.%.1 O = = = = = V E V V V V V V V ",
"m V C V m x k $ = = = = = Y -.;.;.;.;.;.;.;.;.;.;.;.X.= #.) ~ ;.;./ G &.;.;.;.;.;.;.;.;.;.;.;.O.o @ = = = = > V V V V V V Z F Z ",
"k N z z k l l , = = = = = H $.;.;.;.;.;.;.;.;.;.;.;.$.= O.;.;.;.;.Q K -.;.;.;.;.;.;.;.;.;.;.;.o.X * = = = = c V V V F E Z E V F ",
"y j s k l k l d = = = = = G O.;.;.;.;.;.;.;.;.;.;.;.=.: ( ;.@.#.=.K ~ -.;.;.;.;.;.;.;.;.;.;.;.X.X * = = = = B V Z Z V V V V V S ",
"y s k a s k z n : = = = = = ) ;.;.;.;.;.;.;.;.;.;.;.;.H Q =.O.O.%.H ) ;.;.;.;.;.;.;.;.;.;.;.-.Q O + = = = ; V V F V V V V V V _ ",
"0 s k s l N S V ; = = = = = / ;.;.;.;.;.;.;.;.;.;.;.;.! H -.;.;.#.H +.;.;.;.;.;.;.;.;.;.;.;.&.; + = = = = d E S V V V F E E E S ",
"a k m N S S _ V < = = = = = U &.;.;.;.;.;.;.;.;.;.;.;.X.: #.%.%.( H $.;.;.;.;.;.;.;.;.;.;.;.#.X * = = = * f N S V S V S F _ _ _ ",
"k N N S S S S V B = = = = = : X.;.;.;.;.;.;.;.;.;.;.;.$.: J K K G U &.;.;.;.;.;.;.;.;.;.;.-.H o = = = = = M S S V V S E E _ _ E ",
"m S S V V m N V F = = = = = = : o.-.;.;.;.;.;.;.;.;.;.;.#.#.@.@.#.$.;.;.;.;.;.;.;.;.;.;.-.H X O = = = = > S _ E S _ E F _ _ S S ",
"V C V V _ V N S S > * = = = = = = 2 o.=.&.&.&.&.&.&.&.%.&.&.&.&.&.&.&.&.&.&.=.&.&.&.%.~ O X + = = = = = d V S S S N V S _ E V V ",
"B _ E Z S V V V N d * = = = = = * O O o X X X X X X X X X X X X X X X X X X X X X X X o O * = = = = = = p n m N S S E S E S V V ",
"M V N C Z Z V V N c : = = = = = = = = * = * * * = = = = * * * = * = * = + = + = * = = = = = = = = = = ; n N E N s N _ _ _ V m N ",
"m V V N V V V V V V < = = = = = = = = = = = = = = = = = = = = = = = = = = = = = = = = = = = = = = = = d n V N m M M M M V M m M ",
"r y y t y y y y y y g < = * * # @ # @ @ @ @ @ @ @ @ @ @ @ @ @ # @ O # + # + + O # O # O @ @ @ # # $ u y 9 g k k c k n g n g n n ",
"m N N V N N N V C N N N d & $ ; # $ $ - - - $ $ - - - - $ # - - ; $ ; $ $ $ $ $ - - $ $ - - $ $ & s l l y V _ ` ` ` _ _ ` ` E | ",
"m S F S F S S F F S S D V B P L L L L L L L L L L L L L L L L L L L L L K v L L K v L L L L v v s a a a 0 C ` ' ' ' ` ' | Z | F ",
"m N V N N S S N F F N V N N V T T T T T T T T T L T T T T T T T T T T T T T T T T T T T T T b g a a a a 7 Z _ ` ' ' ` ' ` | ` | ",
"m N m N N N N N N N N N N C V V T T T T T T T T T T T T T T T T T T T T T T T T T T T T b c h h a a j j q S _ ' ` ` ` ` F Z | _ ",
"m N M N N N S F S S F S N N N V V I T T T T T T T T T T T T T T T T T T T T T T T T T T h e e e e e a e 6 S ` [ ' ' ` ` | | ` | ",
"n N V N V V S N N N S N V N N N N N b U T T Y T T T T T T U T T T T T T T T T K T T v g e e e e w w 7 5 4 V _ ` | ' ' ' ' ` ` ` ",
"n V N V S S N N S S V V N N V C S V V N B V B V B B B B B n n n n n n g n k g h h y y e w e w w w 7 5 4   N _ ` ` _ _ ` ` _ _ ` ",
"n M M m m N N V V V V V V V N V N S V V N S F C F C D N A A x A x z k j j h h h e h e e e e e e 7 7 6 8 6 C C ` ` ` _ ` ` _ ` ` ",
"n N M M m n m N V N V N M M M N N D V S V F F F C F S F D D A x x z x j l l j j j h h h h e e e 8 8 8 e 6 C ' ` ' ` ` ` ` ` ` ` ",
"n V N N M N N N V V V N N V C V S S F S S S F F F C N D D C D D N D A x x x N x x x j h h j e j e 8 8 e 8 C ` ' ' ' ' ' ' ' ' ' ",
"m N V C N V S F C F S N N S S S F S D F F F F F F F D C D D D D D D D A D D D D D x x x j e j e e e 8 8 6 C ` ` ` ' ` ' ' ` ' ` ",
"m N N C N D C F F N F N N N A A S A S F F ` F ` F F F F F F F F F F F D D D D D D x x x j e e e e 8 8 7 . E ` _ _ _ _ ` ` ` ` ` ",
"m C N F C D N S C A S N S N N N A S S F F D F F _ _ ` F F F F F F D D D D D D D x x x x j x x h e e 8 8 6 C _ E E E _ _ _ _ C ` ",
"m N C N D N D F D D D D D S D D S F F F F F F F F ' ` F F F F D F D D D D D D x x x x x x j j e e 8 7 7 8 Z _ _ _ ` ` _ _ _ _ ` ",
"k N m m N m z m m m m N m x N N N A A A D D N S D F F D D C D N C D A x A D x x x e h h x j h e e 8 7 5 . R ` E _ E E E ` ` C C "
};
