/* XPM */
static char *out[] = {
/* columns rows colors chars-per-pixel */
"64 64 48 1 ",
"  c #BCA686",
". c #C4AD8C",
"X c #C9AF8E",
"o c #C1AC91",
"O c #C6B192",
"+ c #CCB594",
"@ c #CEB896",
"# c #C5B59D",
"$ c #CBB699",
"% c #CEB99B",
"& c #D0B897",
"* c #D2BB9C",
"= c #C5B7A1",
"- c #C8B7A1",
"; c #C6B9A4",
": c #CABBA4",
"> c #CABFAB",
", c #D4BFA2",
"< c #CDC1AC",
"1 c #D5C1A5",
"2 c #D8C3A6",
"3 c #D4C4AC",
"4 c #D9C6AC",
"5 c #D7C8AE",
"6 c #DBC9AE",
"7 c #D4C6B2",
"8 c #D9C7B1",
"9 c #D6C9B4",
"0 c #DCCCB5",
"q c #D7CCB8",
"w c #DDCEB9",
"e c #DED0B7",
"r c #DED0BC",
"t c #E0CFB6",
"y c #E0CFB9",
"u c #E1D0B6",
"i c #E1D2BC",
"p c #DED2C1",
"a c #E3D6C2",
"s c #E5D9C5",
"d c #E8DCC7",
"f c #E3D7C9",
"g c #E6DBCA",
"h c #E9DECC",
"j c #EADFD0",
"k c #ECE0CF",
"l c #EDE2D3",
"z c #F0E5D6",
/* pixels */
"300500000080000800wyw080yt00000008tw00008658tt0t0yywuwu0yw008600",
"7e00000800000wyyt0y00tt00000tw08000y00088058840wy0t0eiwyt000tt54",
"5775358054880y00tree00tw00080tywt0000t000080800wy000008t00006544",
"<33333355600w0yw0r00y00wy0w00yyyyyiyw0ttwtwyt0yyyywywyu0ui00060t",
"35588585880y000te0000660000uryyuuiiiy0t00wt000iiyiiiiiiiiiirtt00",
"0erwe00800y800000e5e6000880uwyyyriiy0t0000080tyuyiuiiiyiiyiut0t6",
"0reuw000y0wy00005550000000ewuywwwwywt88064080t00tyyyytt0wyiu0t06",
"0rruuiywy00yw0000e0e60t00eutwuywwrwt8t85656880000yyyiyyyyiuu0600",
"riiiiire0yyyw088eeee0005eeuiereiiruu0wtyyyyyyuiiiiiiaiiiiaiiiiiu",
"iskisiirypyyyw0weeeiuuuueuieieaerrwiyw0000wu00ywiiidiiaaiaiasiii",
"kisssirsaaytriiieerrriiiuieaaasairwwwwwuu000000yiiiaaaaiiiiisisi",
"rkssksssfsaaiaaaarkraaaakiaiiarerrirawirw0w0wwuyiiiiaiaaiaaaisii",
"kkrkssskdgsssssapspsssssrriirsrairrrririiwuyyiyyiuiiaaaiiwyaiiis",
"rkkrsssssssgdssssssssssprrrssrraiiu0wwaiwiwwywyyreeryyiwaaiiissi",
"sgsspgspsssssssspssssppssrkrrsrqururirrriprwwy0w0t00wywwwiyiiiiy",
"><<<<<<><>>><>>>><<<<<<<<<<<<<<<>;;>:;>;:>;>;;;;;;;;====#;===-:-",
"ffgggffggpjfjjfgggjppppppffpfgfffdafasaaaaaapyaaaipi9<9777>88>88",
"lzllllzlllzzljlllllgjpfjjlzlllkljlljllhkhhdhdsddhhgkp9qqqqqwpppp",
"glkllkklzlllllglllgpjffjlllkkklllhdfdhhjddhhjdsdsagkw9w>q0qwwqqw",
"gzlllllllzlllllzlllgppjlzzzlkllgddhdhhhdfdhhhhdkhdhgp9qqqqpppppq",
"llllllzlllklllllzzzjpfjjllljkkkpdfhhhlkhhhjhhdddkkhgr7q9q8qwppww",
"jzlllzzllllkllzlzjzlljjjgllggkkkjhhkljjkhhhjhhhjkklhq7pqpwpppqpp",
"jllllzlllllzlzzzzjlzllzjllllkkllljjjlllllhjjhjjhklkhpqqqpwwppqwp",
"lzzzllzzlzlzzzzlzzzlzlzzlllllklllllllljlllzllljkklllpqrppppwppwq",
"jjlllllzzzlllllzjzzzlkllllllklkljjjjjjjjllllllllljjlpqwwqpwqwp>p",
"jjllzzlllllllklljjjjlkllllllkkgkdhhhkkhlllzllllljlllp9wqw8pwwwwp",
"ghjjkkklkkllkkkkjjljkkksgkfgksskdhhhkfdkhklljljllkllp>wpwpwppapp",
"gkhjgkkkkkggkkkkljjjkkgkggglkssssaaassssfhgghhkhddkjp>8>7q9qp>pp",
"gjkkhkkkkkkgkkkkjhgksksskgsggkgsfdaaaafsfgjhfsssdssdw>wqwywpyppp",
"hkkkkklkkkkgkkkkjhkkkgkkggksskskhddffdhgjfffssassasiy>w8>p>yypyp",
"gkljjlklkkkkpkgkgkkhkkskkkkkskkkddfhghdgjjjfghfsaaii>ywyyqpyyppy",
"qfpprpqpqrqrrrqqqqqeqqeqqqqeqrqrprwppwwpqppwppqw0008>>>>>>>>>w>>",
"qwww877373>33333<1>333<31::<78w09qwq8qw988qw9qqq999979977>777797",
"rapi088004438878808850883338wrwwww0ww8wwwwwrrraawwwwwwpqppwpywpw",
"waiu58t6064250iy000t000ww880ruyw0w008580800yriiywwwpywwwwwq0qwww",
"78000086t53248yiiytyt00rr88rrriiyyy0008008000iwywawwpwppwypyywwq",
"8er085484,3248yywirrw880000ruwwwwywuu0000t00yyyyayaapwqwwwwwypyp",
"805334564,,4,488w878r08337w00ywyuyw0000080tyypyppwyaa0wypywypyyy",
"33237455,:,,33580000083,1388w0irw8808000008yywwwyywpww0wwwpqwyyy",
"::3,,35373,3,33800e781;<3310wyrrrruwt00y0wyywyywwwww0wwwirwwwwyp",
"%,3350yyt088553478ww83334340yiywiywwy0ty0wwpyw0wwywwywypwwwraapy",
",388tiiw00tyt84578880058858ywwwwrww00008800yw000wwywwqwywwypwaaa",
"q0wtyyyyw0t0y0000wyuyytty0000wwwww0800888w0yw80y0000wwwywwyypaap",
"wwwww8wwy0yryyyyuuwyyw0wyw0yyyiawywy0w00w0ww080w0w0wwyayyapipsyw",
"rr9riwwiu00t033787908080w0ww0urrwww800wwpyyypywpyww00wyyyywwpyww",
"warwwwww043338uiiiaassaaiywysiwrw8q80>,78>7wypawaaayw880wwpyawww",
"qwwrrrw807wiiiaiiapgasauaasarrir0waayapyawqqwqwwqwwy00i830yaaw8w",
"qww0wwrwwwwqwwrwwrrrrrwwwqrrw3333,,3480wyy0wwwwq0qwq70q8988wq999",
"=:::::::::<::::::;:::;#;##-=#%##==## #######;@*@---: 777773<5<57",
"8e0e00we0te0utwitty00tt0t880603566250533552255524454%0pgkpsipkss",
"8yuutwuiiuyryuiit0tt0t666466664566265531,,2222**,,,,$radsssskskr",
"8wwwywyriiy00ttit0t0t600650642221,,,,*,1,*,22*22,,2,$uadkspkssks",
"800000w80w000tywy00660000t664221*%%$#@@@*,2,2**2,,22&yadddassasa",
"808000u0tyuy000y000006t0t6642422,*%%%%%%@***********oydhdddsskkd",
"8wwwuyw00wy0r0000000t0w0006064422211,**@@@***&***+&X.waakdddddss",
"0qw0we0uy0ww000wy000tuiuy00t044444432211*****&*@&+X. 8aasaasaaaa",
"7q08800yywrqwww0wwwywwiiruwtu66u6422311,*2*2*@*@+++@O5asssassaaa",
"7q97778qwww88w090y0uwiriruyyuut666626222222*****@@@*Oessdsasssdd",
"8w0008w0www00tr0ttuiuyiiiuytuuuueut6t6e662222*22*@@*@qsddddddddd",
"8www0uwiwuy0wwuritiiiiiuiiuuuuuuuuuttuuuuu622*2**@@@Oesddsdddddd",
"00uyeu0uueu00tt0itytiidiiiiiiiuiiiuuuuuuu6662,1**@@@Oqsapspsasss",
"00utu0utwtw0000ttyiiiiiiaidiiiiiuuutuuuuu626222***@@Oeaeaespaaaa",
"8u0e0euuuuuutttuyyiiiiaiiddiiiiuiuuuuut66666622,*@@+#qsesaspaaes",
"5888080888806000ttttuu0tuuiuueeuuutt6t66222222,**@@.oqssppspssee"
};
