/* XPM */
static char *out[] = {
/* columns rows colors chars-per-pixel */
"64 64 210 2 ",
"   c #0C0C0C",
".  c #10100F",
"X  c #131413",
"o  c #171716",
"O  c #171918",
"+  c #1A1C1B",
"@  c #231F1D",
"#  c #1E201F",
"$  c #26221F",
"%  c #1C2326",
"&  c #1E2B33",
"*  c #242422",
"=  c #2C2623",
"-  c #2A2A27",
";  c #2C2C29",
":  c #342925",
">  c #3A2E2C",
",  c #35302A",
"<  c #3C332C",
"1  c #28333C",
"2  c #3C3C38",
"3  c #44322B",
"4  c #463C36",
"5  c #48443E",
"6  c #55433A",
"7  c #02304C",
"8  c #093753",
"9  c #263A48",
"0  c #1D4359",
"q  c #02476B",
"w  c #014E76",
"e  c #015077",
"r  c #015179",
"t  c #0B557A",
"y  c #165B7B",
"u  c #2A4D63",
"i  c #2F526C",
"p  c #395664",
"a  c #2E5875",
"s  c #315A78",
"d  c #28647E",
"f  c #3F6A7B",
"g  c #584C44",
"h  c #514F4D",
"j  c #59544D",
"k  c #4E5459",
"l  c #664F42",
"z  c #695549",
"x  c #73584A",
"c  c #785D51",
"v  c #68645B",
"b  c #7A6354",
"n  c #495D66",
"m  c #6B6264",
"M  c #7B756B",
"N  c #687777",
"B  c #875E52",
"V  c #8A6F5C",
"C  c #92695A",
"Z  c #9B7D64",
"A  c #877F73",
"S  c #A47A63",
"D  c #8B8579",
"F  c #A4856B",
"G  c #AD8C70",
"H  c #B38F73",
"J  c #B99577",
"K  c #C79579",
"L  c #C49B7C",
"P  c #D09079",
"I  c #0E5A85",
"U  c #315E80",
"Y  c #15618D",
"T  c #1D6895",
"R  c #34688A",
"E  c #2A659D",
"W  c #26699B",
"Q  c #226C9A",
"!  c #2E6BA3",
"~  c #306DA5",
"^  c #2A71A4",
"/  c #3475AB",
"(  c #3476AB",
")  c #3B79AE",
"_  c #3778B0",
"`  c #3B7DB4",
"'  c #527893",
"]  c #427CA5",
"[  c #3D81B7",
"{  c #3F83BA",
"}  c #5D818C",
"|  c #788A8B",
" . c #6F8B92",
".. c #748A98",
"X. c #5B89AD",
"o. c #4282B5",
"O. c #4C86B5",
"+. c #4185BB",
"@. c #4A87B9",
"#. c #4488BC",
"$. c #4B8ABA",
"%. c #5287B4",
"&. c #558BB5",
"*. c #5C8EB4",
"=. c #538DB9",
"-. c #5D92B9",
";. c #608DAE",
":. c #7997AD",
">. c #688EB0",
",. c #6695B7",
"<. c #769CB7",
"1. c #76A0BF",
"2. c #869591",
"3. c #8F9198",
"4. c #A59A8A",
"5. c #A4969F",
"6. c #9BA39A",
"7. c #B6A58B",
"8. c #B7A999",
"9. c #BDB29E",
"0. c #8697AB",
"q. c #9599A8",
"w. c #AA9AA2",
"e. c #99A3AA",
"r. c #86A4B8",
"t. c #95ABB7",
"y. c #9FB0B9",
"u. c #A6A8A9",
"i. c #B3ADA1",
"p. c #AEB3AF",
"a. c #B8B3A7",
"s. c #ABB3B3",
"d. c #A1B2B9",
"f. c #B6BBB8",
"g. c #D39A85",
"h. c #C59890",
"j. c #C8AA89",
"k. c #DAAD89",
"l. c #DCB18C",
"z. c #C5A996",
"x. c #C7B192",
"c. c #CCB594",
"v. c #C9B69B",
"b. c #CEB89B",
"n. c #D0B897",
"m. c #D2BB9B",
"M. c #F6A58B",
"N. c #FAAA8E",
"B. c #E1B48F",
"V. c #EAAA95",
"C. c #F3A992",
"Z. c #FBAF91",
"A. c #E6B993",
"S. c #E9BA97",
"D. c #FCB494",
"F. c #F6BB97",
"G. c #FCBB96",
"H. c #C4B6A1",
"J. c #C6B8A3",
"K. c #CBBCA5",
"L. c #C5BCAB",
"P. c #CBBFAB",
"I. c #D4BEA2",
"U. c #DABEA4",
"Y. c #C3BEB3",
"T. c #BEC0B9",
"R. c #E9C29D",
"E. c #F1C096",
"W. c #F4C59D",
"Q. c #FBC49B",
"!. c #FCC99D",
"~. c #CDC1AC",
"^. c #D6C1A4",
"/. c #D9C3A6",
"(. c #D4C4AC",
"). c #D9C6AC",
"_. c #D7C8AF",
"`. c #DCC9AE",
"'. c #C8C3B5",
"]. c #D4C6B1",
"[. c #D8C7B0",
"{. c #D6C9B4",
"}. c #DCCCB5",
"|. c #D1C7B8",
" X c #D4CBBC",
".X c #DDCEB9",
"XX c #DFD0B7",
"oX c #DED1BC",
"OX c #E9C6A4",
"+X c #FACBA2",
"@X c #E1CFB6",
"#X c #E9CFB3",
"$X c #E0CFB9",
"%X c #E2D0B7",
"&X c #E2D2BC",
"*X c #88AAC2",
"=X c #95B3C6",
"-X c #B9C4C6",
";X c #C4CCCE",
":X c #DFD3C1",
">X c #DCD8CD",
",X c #E2D6C2",
"<X c #E6DAC5",
"1X c #E8DCC7",
"2X c #E5DBCB",
"3X c #E9DECB",
"4X c #E8DED1",
"5X c #ECE1CF",
"6X c #EDE2D3",
"7X c #F0E5D6",
/* pixels */
"~.}.}.[.[.}.}.[.}.}._.}.}.}.@X[.}..X}..X@X}.[..X$X}..X}.}.[.}.[.}.}.}.}.}.}.}.}.[.)._.[.@X@X}.}.}..X$X.X%X$X&X}.$X.X}.}.`.}.}.@X",
"(.XX}.}.}.}.}.}.}.}.}.}.}.}.$X$X.X.X@X@X}.}.@X}.[.@X}.}.@X}.}.}.}.}..X@X}.}.}.}._.}.[.}._.).@X$X.X@X@X}.}.&X}.$X@X}.}.}.}.}._.).",
"(._.[._.(._.[.{._._._._.}.}.@X}..X@XXXXX@X}.@X}.}.[.}.[.}.@X%X.X@X.X@X.X}.}.}.}.}.}.[.}.}.}.}.}..X}.}.}.}..X[..X}.}.`.`.`._.).).",
"~.(.~.(.(.(.).).[.[.}..X$X.X}..X.X.XXXXX.X}.}..X$X$X.X}..X.X&XXX}.$X$X$X$X@X}.}..X$X@X@X@X}.$X.X$X$X$X$X.X@X@X@X&X$X.X.X}.`.}.@X",
"~.(._._.[._.).).@X[.[..X}.}.}.}.XX}.}.}.}._.`.}.}.}.}.}..X@X&X%X&X&X&X&X$X@X}.}.}.@X$X.X.X}.@X&X$X$X&X&X&X&X&X&X&X&X&XXX@X}.}.}.",
"_.XX.X.X.X%X.X[.[.[.$X.X}.}.}.}.}.}._.}.`.}.}.}.[.[.}..X.X}.[._.].{..X.X}.@X}.}.).@X}.[.`..X.X&X$X&X$X&X&X$X.X&X&X&X&X%X.X@X@X`.",
"}.XXXX$X.X}.}.}.$X}.}..X}.[.}.}._.{.`._.}.}.}.}.}.(.9.4.D v j h h j v A 4.H.[.[.).}.}.[.}..X}.}.$X$X$X$X$X@X.X@X.X$X&X%X}.XX`.}.",
"{.&XXX&X&X&X@X@X$X$X$X$X$X.X}.}.}.XXXXXX_.}.}.J.A 5 = * * $ O O + + * $ * : j 4.P.).).)._.@X}.}.}.$X$X$X&X$X$X$X$X&X&XXX}.}.`.}.",
"&X&X,X&X,X&XoX.X.X$X$X$X$X}.}.[.}..X@X.X}.K.M ; X     X + + + + + + + X     X o 5 4..X@X@X%X&X&X&X,X&X&X&X&X&X&X&X&X&X&X&X#X&X&X",
"&X<X<X&X,X&XoX&X$X$X&X$X$X$X}.}..XXX.X.X8.4           O + + + + O + + X           X M P..X}..X%X&XoX&X,X<X<X&X,X&X,X,X&X<X&X&X&X",
":X1X<X<X<X<X<X,X:X:X$X$XoX&X&X&X&XoXXX4.;             O + O + + + + + X               5 8..X.X&XoX&X&X,X&X<X,X,X&X&X,X,X<X,X<X&X",
",X<X1X1X<X<X<X<X<X<X:X:X,X,X,X,X,X:X4.- o             O + + + + + + O X                 2 8.$X&X&X&X&X&X,X&X,X&X&X,X&X,X&X&X&X<X",
",X2X<X<X<X<X<X<X2X1X<X<X<X<X<X,X<X4.- + O             O + + + + O + + X                 + 4 z.oX&X&X&X&X,X&X,X&X.X,X,X&X&X&X,X<X",
":X<X<X2X<X2X,X<X<X<X<X2X<X<X<X<Xa.4 + + O             O + + + + # + O .                 O + j P.XXXXXXXX$X&X&X&X,X&X$X&X&X,X,X&X",
":X2X2X2X<X<X<X<X<X<X<X<X<X<X<X.Xv * + O X             + + + + + + + + X                 O O * M .X.X.X}..X.X.X.X$X&X&X&X$X&X&X&X",
"L.~.~.~.P.P.P.P.P.P.P.P.P.K.K.2.1 + + O O         .   O O + + + + # # X                 + + + 2 4.J.J.J.J.H.H.H.H.H.H.H.H.H.J.K.",
"2X2X2X2X2X2X2X>X4X2X4X4X2X2X>Xm + + + + o             O + + + # + + + X                 + + + + v oXoX:X{.].{.|.(.].|.].].|.].].",
"4X6X6X6X5X6X6X5X7X4X4X7X4X4Xi.2 o + O + o             O + + + + + + + .                 O + + + g a.5X5X:X{..X{.{..X.X.X.X.X.XoX",
"2X6X6X6X6X5X5X6X7X4X7X7X7X4XM # + + + O .             O + O + + + + + X                 + + + + - D <X5X:X{..X(.{..X X.X X.X.XoX",
"<X6X6X6X5X6X6X6X4X7X7X7X2Xf.n # + + @ O X             O + + + + O + +                   + + + + O n -X:X:X|.]. X X.X.X:X:X:XoX X",
"4X6X6X6X6X6X6X7X7X4X4X-X1.] 9 + % + + + .             O + # + + + + + .               X + + + + # 9 o.r.T.'. X{.{. X X.XoX:X.XoX",
"4X6X6X6X7X7X7X6X4X4X=X=.] U & + # + + + X             X + + + + + + % .                 + + + + + & R { $.t. X.X.X.X:X:XoXoX:X:X",
"2X6X6X7X6X6X6X6X>X*X+.+.+.U % + + + + O               O + + + + + + + .               . + O + + + % a { #.#.r. X:X.X:X.X:X:X XoX",
"4X7X6X6X6X6X6X6X*X+.+.+.` U + + + + + O .             O + + + + + + + X               . + + + + + # a ` { { $.t.:X:X:X.X.X X.X.X",
"4X7X4X7X6X6X7X;X$.+.+.+.] a O + + + + O .             O + + + + + + O X               X + + + + + + i ` { +.+.=.'.:X$X.X X.X X.X",
"2X4X6X4X6X7X6X=X#.+.+.%.q.m + + + + + + .             O + + + + + + O X               X O + + + + o k 3.] +.+.$.y.|. X.X$X.X:X.X",
"1X3X3X6X6X5X4X1.+.+.O.8.C.C + + + O + +       .       o + + + + + % + X               X + + + + + + l h.u.$.#.#.r.:X.X:X:X$X:X.X",
"<X6X3X3X4X4X>X1.+.] >.N.M.C + + + + O +               X + # + + + + + X               X + + + + + + 6 g.C.-.+.#.<.{. X.X X X:X:X",
"<X2X3X3X3X6X4X<.+.{ q.M.M.C + + + + o +               X + + + # + + O X               X + + O + + @ 4 g.Z.:.#.#.<.{..X$X$X:X:X:X",
"1X4X6X4X3X6X4X<.{ +.0.C.C.C + + + O + O               X + + + + + + O X               X + O + + + + l g.V.>.+.+.r..X X X.X:X:X:X",
"1X4X4X4X4X3X4X*X+.+.@.q.5.m O + + + + +               X + + O + + + O X               o + + + + + + h 3.0.@.+.$.d.[.}..X X:X$X.X",
" X,X<X:X,X:X,Xd.$.+.+.+.` a + + + + + + .             X + + + + + + O .               o + + + O @ @ i ] +.+.+.=.p.P.P.[.P.].].].",
"|..X.X}.}.].].f.@.{ +.{ ` s # + + o + @               X + + + + + + + X               X # + + + @ % a { #.+.+.=.Y.P.P.[. XP..XP.",
".X,X:X&X}.[.[.P.=.+.+.{ { U % + < $ + o           .   X + + + + % + + X               X + + + < x h ~ ` { { +.-.:X:X$X$X:X$X$X:X",
"{.,X&X@X).].@X_.,.+.#.{ _ R 1 x P l o o     : :       X + + + + + + + X               o + @ $ C g...] _ ` { +.1.:X X$X X X$X:X$X",
"(.}..X.X}.}.[._.r.+.{ ` E / ' g.N.P B @   . x K 6 X   o # + + + + # # X       X : < 3 4 4 4 C M.h.%./ E _ +.+.y.:X.X$X$X$X.X}.$X",
")..X.X.X}.[.).}.s.+.{ ` E / +.w.N.N.N.P 3 $ S G.F.Z $ o O # + # 4 < + X       3 h.F.D.N.Z.N.N.C.q.+.~ ~ { { ] -X.X.X.X}.$X$X:X:X",
"(.}.).(.I.).[.[.Y.#.#.+./ ~ ` >.V.M.N.N.M.K B.Q.!.!.A.F g < - , G S.J l = o o 4 V.G.F.D.D.Z.Z.z.%.` ! _ { { @.|..X$X:X.X:X$X$X$X",
"K.(.(.^.].).).[.P.=.+.+.` ! ) #.q.V.N.D.D.G.Q.!.!.!.Q.!.!.A.H F l.!.!.+XA.L S H F.Q.G.G.D.D.V.0.] / E _ { +.1.:X.X:X:X.X.X.X$X$X",
"K.K./.P.P.U.).).[.t.#.+.` ! / +.#.w.F.G.G.Q.Q.B.L L L k.E.!.!.!.!.+X+XQ.S.A.A.S.W.Q.Q.Q.G.S.q.+.+./ ~ [ { +.s.:X$X.X.X.X.X$X$X:X",
"b.I./.(.].}..X$X}.'.#.#.{ ( ~ ` { $.e.S.!.Q.S.V > > 4 4 H Q.!.!.!.!.+XH c z z b J Q.Q.Q.U.q.@.#._ ! _ { ] =.|.:X$X:X$X.X:X$X:X:X",
"K.(.[.[.$X&X&X$X.X{.<.+.#.` E / { +.$.0.I.+XF.F x z g g G +X!.!.!.!.+XV : > : < Z +X+XH.:.{ { +./ ! ` +.+.r.$X$X.X.X$X$X:X:X,X,X",
"[..X}.$X$X$X$X.X}..Xf.#.{ { ~ ! { { +.+.,.e.U.S.A.A.l.k.F.!.!.!.!.!.!.B.J L L L l.I.q.*.` { { ` ! ~ { { #.-X$X$X.X.X:X:X:X,X:X&X",
"[.$X$X.X.X}.}..X.X.X|.,.{ { ( W _ { { { #.$.,.0.a.U.OXW.W.!.!.Q.!.!.!.W.W.OXI.u.:.*.o.+.{ { { _ ! _ { { r.:X:X$X$X$X:X$X,X,X:X$X",
" XXX}..XoX.X.X$XoX.X[.s.{ { ` ! ! { { { +.+.+.#.O.O.&.*.;.:.a.!.W.u.:.X.&.&.$.$.o.+.{ +.+.+.{ ! ~ { { @.f.$X$X$X}.$X$X$X,X:X$X$X",
" X,X:XoX$X.X.X.X}.).(.P.<.[ { ( E ` +.{ +.+.{ o.[ { +.` o.+.-.a.i.&.{ [ { { +.{ +.] { +.+.+._ ! _ { ] =X|.[.[.}.$X$X:X:X:X$X X.X",
"}..X.XXXoXoX.X}.{.}.oXoXf.=.+.+.! ~ [ { { { [ { { { { { { { { { { { { { { { { { +.+.{ { +.{ ! ~ +.] -.-X.X}.:X}.P.$X$X,X:X:XU.$X",
"]..X.X}..X.X.X.X}..X.X.X.Xd.*.&.o.) ` +.+.[ { { { { { { +.{ { { { { { { #.{ { #.+.+.+.{ { { _ ] #.*.s.}.].[.}.[.[.[. X[..X[.[.[.",
"v.K.J.K.J.K.K.K.K.K.^.K.K.K.p.s.e.e.X.( [ [ { { { [ { { #.{ { { { { { #.{ { [ [ [ [ [ [ [ ,.s.6.y.a.L.K.v.P.].~.{.(.~.(.].~.(.].",
"]..X.X@X.X.X@X.X.X}..X}..X.X@X#X+X!.9.' T Q ^ ( [ [ { { { #.{ #.{ { { { { [ [ [ [ [ T [ } m.W.OX@XU.[.U.K..X,X,X<X<X<X&X:X5X:X5X",
"[.$X$X&X@X.X$X$X&X&X@X@X.X$X&X&X%XOX+Xa.} t t I Y T Q Q Q Q Q Q Q Q Q T Q T Y Y e q y } b.OXR.m.P./.U.I.v.XX,X1X2X2X1X1X<X5X5XoX",
"[.}.}..X$X.X$X@X%X&X.X.X}.@X&X%XXX}.XX@XT. .d e r r e e e e e r r r r e r e w w e d | J.^.^./.^.I.I./.I.c.XX<X<X1X1X<X1X<XoX5X5X",
").}.}.}.[.}.}.}.}..X}.}.}.}.%X%X@X}.`.`.}.~.6.R r r e e e e e e r e e e w w w t f 6.K.^.^.m.^.m.I.m././.b.XX<X1X<X<X,X<X<X<X<X,X",
"].}.}.}.}.$X.X@X.X@X&X.X}.}..X$X.X}.}.}.}.XX{.a.} t e e r r y  .2.d r e w w w f 7.m.^.m.m.m.m.m.m.m.I.m.x.oX1X3X5X1X<X<X<X5X<X5X",
"].}.@X}..X$X@X.X}.@X.X.X%X}.}..X}.}.}.}.}.}.}.}.a.p w r r y 2.(.^.9.a q q q 0 N n.m.m.n.m.m.n.m.m.n.n.c.7.%X&X1X1X1X5X<X1X<X<X<X",
"]. X}..X}.$X}..X.X@X.XXX}.[.}..X.XXX}.}..X%X&X&X&X| 8 7 8 p J._.`.`.N 8 & 0 p v.m.m.m.m.n.m.m.n.n.c.j.j.7.@X<X&X<X,X&X<X<X,X<X<X",
"].}.{.[.[.}..X.X.X@X.XoX.X.X.X}..X&X.X.X}.$X&XXXoX{.N 0 u 2.%X`.`.).9.p 0 p 7.I.m./.m.m.m.m.m.n.c.c.x.c.x.XX,X<X<X<X<X<X<X,X<X<X",
"].{.{.).].).].}..X}.}.].}.{.{.}.[.XX}.&X.X&X&XXXoXoX{.i.9._.%X`.`.`._.v.4.~.(.^././.^.^.^.m./.m.n.n.n.m.x.XX<X<X1X1X<X<X<X<X<X<X",
"]. X.X}.}.[..X}..X.X.X}.}.@X.X.X.X%XXX$X$X$X&X&X&X&XXXXX%X%X#X%X`.%X%X`.`.`.XX`.`.`./.^.^.m./.m.m.n.n.m.x.XX<X<X1X1X1X1X1X1X1X1X",
"_..X.X.X.XXX.X&XXX.X&X.X.X.X@X&X&X.X&X&X&X&X&X&X&X&X%XXX%X%X%X&XXX&XXX%X%X%X%X%X%X`.`.`./.m./.m.m.m.b.b.x.XX<X<X<X<X1X<X1X<X1X<X",
"_..X}.@X.X.X%X%X%X.X@X}.}..X@X@X%X%X&X&X&X&X&X&X&X&X&X&X&X&X%X&X&X&X%X%X%X%X%X%X%X`.`.`./.^.^.m.m.c.c.c.x.XX<X,X,X,X<X:X<X<X,X<X",
"_.@X@X@X%X@X}.@X.X@X@X.X.X`.`.}.@X@X%X&X&X&X&X&X&X&X5X&X&X&X&X&X&X%X%XXX%X%X%X%X%X`.`./.`././.m.m.m.n.c.x.oX:XoXXX:X:X<X,X,X&X<X",
"_.@X.X@X%X.X@X@X%X&X@X@X@X@X%X&X%X&X%X&X1X&X&X&X%X5X&X&X&X&X&X&X%X%X%X%X%X%X#X`.`.`.`.`.`./.^.^.m.m.c.c.x.oX,X,X<X<X<X:X,X<X&X<X",
"(.[.[.[.[.}.[.[.`._.}._.}.}.}.}..X.X@X%X%X%XXXXX%X&X&X&X%XXXXXXXXXXXXXXX`.XX`.`./.^.^./.`.m.^.m.m.c.c.x.x. X<X,X:X:X<X:X:X:X:XXX"
};
