/* XPM */
static char *out[] = {
/* columns rows colors chars-per-pixel */
"64 64 75 1 ",
"  c #1C1C1C",
". c #2C2C2C",
"X c #353535",
"o c #3D3D3D",
"O c #444444",
"+ c #4C4C4C",
"@ c #525252",
"# c #5B5B5B",
"$ c #636363",
"% c #6B6B6B",
"& c #737373",
"* c #7D7D7D",
"= c #828282",
"- c gray55",
"; c #929292",
": c #9A9A9A",
"> c #BCA584",
", c #BEA888",
"< c #A4A4A4",
"1 c #ABABAB",
"2 c gray70",
"3 c #BCBCBC",
"4 c #C5AD8C",
"5 c #C9B08E",
"6 c #C7B192",
"7 c #CCB594",
"8 c #CEB897",
"9 c #CBB69A",
"0 c #CEB99B",
"q c #D0B897",
"w c #D2BB9C",
"e c #C9BDA6",
"r c #D4BEA1",
"t c #CFC2AA",
"y c #D6C2A5",
"u c #D8C3A6",
"i c #D5C5AC",
"p c #D9C6AB",
"a c #D7C8AF",
"s c #DCC9AE",
"d c #D5C6B1",
"f c #D8C7B0",
"g c #D7C9B2",
"h c #DDCCB4",
"j c #DECEB8",
"k c #DFD0B7",
"l c #DED1BB",
"z c #E0CFB6",
"x c #E0CFB9",
"c c #E2D0B7",
"v c #E2D2BB",
"b c #C5C5C5",
"n c #CCCCCC",
"m c #DFD5C2",
"M c #D4D4D4",
"N c #DBDBDB",
"B c #E3D6C2",
"V c #E6DAC4",
"C c #E8DCC7",
"Z c #E7DDCA",
"A c #E9DDC9",
"S c #EBE2D6",
"D c #EEE6DA",
"F c #EFE8DC",
"G c #F0E7DC",
"H c #F0E9DE",
"J c #E6E6E6",
"K c #EFE9E0",
"L c #ECECEC",
"P c #F3ECE3",
"I c #F4F0E7",
"U c #F7F3ED",
"Y c #F8F4EE",
"T c #F3F3F3",
"R c #FFFFFF",
/* pixels */
"tghgfzhghhijhhhffxjjzhhhjhjhhhhhhfgxffzfgsifzzhhhjxxvjvhxjjfzfzz",
"ajjjhfhhhhhhhjxxhjjzhjhhhhhhjhfhhhjxzjzffhfffazjjhhhjvhxxfzffzsa",
"igaiaaagfaffhhhhjzjjhhjhhfhfhzxzjjjjhhjfhhfhfhhjxhhjfzgjjfhsapap",
"eitiiiiaffhzxhhxjzjjxhhjxjjhjxxxzjxxxxjcjxjjxzxxxxxjxjzzvvzhfzfz",
"tagggaaajrhzhhhhjjgjhghfhfhjxjxxllvvxxjjhjjjhhvvvvvvvvvvvvvlczzh",
"lllBBvllmxmmmmxmvlllvvvljxvBBvBBBBBBvvvvvjvjxBvBBBBBVBBBBBBBvBvc",
"UUUUUYYYUUUUUUUUYUUUUUUYTUUUYYYYYTYYYYYYYIYYYYYYYUUYUUUYUYUYYYUU",
"RRRRRRRRRRRRRRRRRRRRRRRRRRRRRRRRRRRRRRRRRRRRRRRRRRRRRRRRRRRRRRRR",
"RRRRRRRRRRRRRRRRRRRRRRRRRRRRRRRRRRRRRRRRRRRRRRRRRRRRRRRRRRRRRRRR",
"RRRRRRRRRRRRRRRRRRRRRRRRTJNJNJNJJNNJNJJLTRRRRRRRRRRRRRRRRRRRRRRR",
"RRRRRRRRRRRRRRRRRRRRRRRRJ-*===*==*==*=*<TRRRRRRRRRRRRRRRRRRRRRRR",
"RRRRRRRRRRRRRRRRRRRTRRRRN=*==*=**==*=**;TRRRTRRRRRRRRRRRRRRRRRRR",
"RRLLLLLLLLLJJLLLLLLLLLLLN;;:::::::::::;<JLLLLLLLLLLLLLLLLLLLLTRR",
"RRNnnnnnnnnnnnnnnnnnnnnnnnnnbnnnnnbnnnbnnnnnnnnnnnnnnnnnnnnnnMTR",
"RRnnnnnnnnnnnnnnnnnnnnnnnnnnnnnnnnnnnnnnnnnnnnnnnnnnnnnnnnnnnnRR",
"RTn1;;;;;;;;;;;;;;;;;;;-;;;;;;;;;;-;;-;;;;;-;;;;-;;;-;;;;;;;<nTR",
"RRN%O:nnnnnnnnnnnnnnnnnnnnnnnnnnnnnnnnnnnnnnnnnnnnnnnnnnnn<@@bTR",
"RRT3+#bJJJJLJJJLJJJJJJJLJJJJJLJJJJLJLJJJLJJJLJJJJJJLJJLJJN*.;TRR",
"RRRT2o%MJJJJJJJJJJJJJJJJJJJJJJJJJJJJJJJJJJJJJJJJJJJJJJJJJ<X&JRRR",
"RRRRT<o=NJJJJJJJJJJLJJJJJLJJJJJJJJJJJJJJJJJJJJJJJJJJJJJJ3+#nTRRR",
"RRRRRT;o:JJJJJLJJLJJJJJJJJJJJJJJJJJJLJJJJJJJJJJJJJJJJJJM&O2TRRRR",
"RRRRRRL-o<JJJJJJJJJJJJJLJLJJJJJLJJLJJJJJJJJJJJLJLJJLJJJ:o;TRRRRR",
"RRRRRRRJ=o<MMMMMMMNMMMMMMMMNMMMMMMMMMMMMMNMMNMMMMMMMMM2O&JRRRRRR",
"RRRRRRRRL==<111111111111111111111111211111111111111111;*MRRRRRRR",
"RRRRRRRRRLb3333333333333333333333333333333333333333333bNTRRRRRRR",
"RRRRRRRRRRTLLLLTLTLLLLLn%@@@@@+@@@@@@+@@*MLLTLLLTLLLLLTTRRRRRRRR",
"RRRRRRRRRRRRRRRRRRRRRRRn+               $NRRRRRRRRRRRRRRRRRRRRRR",
"RRRRRRRRRRRRRRRRRRRRRRRRJMnMnMnMMnMnMnMMLRRRRRRRRRRRRRRRRRRRRRRR",
"RRRRRRRRRRRRRRRRRRRRRRRRRRRRRRRRRRRRRRRRRRRRRRRRRRRRRRRRRRRRRRRR",
"RRRRRRRRRRRRRRRRRRRRRRRRRRRRRRRRRRRRRRRRRRRRRRRRRRRRRRRRRRRRRRRR",
"RRRRRRRRRRRRRRRRRRRRRRRRRRRRRRRRRRRRRRRRRRRRRRRRRRRRRRRRRRRRRRRR",
"RRRRRRRRRRRRRRRRRRRRRRRRRRRRRRRRRRRRRRRRRRRRRRRRRRRRRRRRRRRRRRRR",
"RRRRRRRRRRRRRRRRRRRRTRRTTRRRRRRTRRRTRTRRTRRRRTTRRRRRRRRRRRRRRRRR",
"RRRRRRRRRRTM<1111<2<211111<1<1111<2<b111113<1<1<<nTRRRRRRRRRRRRR",
"RRRRRRRRRRT1#%%#%#&@%#$$#%#%#$#$$#%@-%####=$%@%#$;TRRRRRRRRRRRRR",
"RRRRRRRRRRT:o++OOo+XOooOOOOo+o+OOOoX=@OOoO&O#X@oO=TRRRRRRRRRRRRR",
"RRRRRRRRRRT<+#@@@+@++++++@@+@@@@@++O-#@@+@*#$+$+@;TRRRRRRRRRRRRR",
"RRRRRRRRRRT:XO++o+XOooOOO+o@o+oOOO+o=+OOOO&O@X@oO=TRRRRTTTRRRRRR",
"RRRRRRRRRRR<O++@+@O+O@+++@+@+@++@+@O=&%%%%=@$O#+@-TRRRTN1JTRRRRR",
"RRRRRRRRRRT<XooOO+o@O@OO+o+o+O+O+Ooo=:::;:-+#o@oO-TRRRJN<NTRRRRR",
"RRRRRRRRRRT1ooOOO+++@@++O+O++++++OoO=:;&=:-+#O#O@-TRRRJN:JTRRRRR",
"RRRRRRRRRRR1OOOO+O#O#+@OO+O@O++++Ooo=;=+%:-@#O#OO=TRRRJJnJTRRRRR",
"RRRRRRRRRRT1o++Ooo#oOoOooooOO+O+O+oo-%#O+$*+Oo#oo=TRRRLJJJTRRRRR",
"RRRRRRRRRRR2O@#@+O$+O+OO+OOO+#+@@#+O-@@+++*#O+%+#;TRRRTJJLTRRRRR",
"RRRRRRRRRRRTJJJJJJLJJJJJJJJJJJJJJJJJLJJJJJLJJJLJLLRRRRRTTTRRRRRR",
"RRRRRRRRRRRRRRRRRRRRRRRRRRRRRRRRRRRRRRRRRRRRRRRRRRRRRRRRRRRRRRRR",
"RRRRRRRRRRRRRRRRRRRRRRRRRRRRRRRRRRRRRRRRRRRRRRRRRRRRRRRRRRRRRRRR",
"RRRRRRRRRRRRRRRRRRRRRRRRRRRRRRRRRRRRRRRRRRRRRRRRRRRRRRRRRRRRRRRR",
"RRRRRRRRRRRRRRRRRRRRRRRRRRRRRRRRRRRRRRRRRRRRRRRRRRRRRRRRRRRRRRRR",
"RRRRRRRRRRRRRRRRRRRRRRRRRRRRRRRRRRRRRRRRRRRRRRRRRRRRRRRRRRRRRRRR",
"KPPPPPPPPPPPPPPPHHPPPPHHHGHFHHFFFDGGGFGSSSFFSSDASSSDSKPUUUIIIUUI",
"jvlvvvBvBBvvvvBvvvvvcxvkjhjjhsapauiiiriuyyusspsspipp0BCAAACZAAAA",
"dffjfjjfhjhhjhjjxhfsszhhshsspuuur0099690wwyruwrrwruuqvBCCCBVCCCB",
"djjfhjxzhjvjhhjkhhzhffzhhhsppppyr00000eqwwwrwwwwwwrw6jCCZCCVCCAA",
"dhjjjjjffzjjzhgjhhhhzzhhhashaspuuurrrwww0ww0wwqww7q5,jBVCCCCCCCC",
"djgjjjjjzxjjjgjjxjhhhxvvvchjhpppssfiyiywwwwwqwwqq754>jBVVBBBBBCB",
"djggghhjjljjjjjljjjjjjvlvlzjchhsfspuyyyrrrrrrqqq77576kvVCVBVVBvC",
"dggddadhjjjggggghjjjjvvllvxzckcszspppppuuurrrwrwq7ww6lVVCCVVVVCC",
"djhhhhjhjjjhhjmjzxxvxxvvvlzjccccszzpszzssuuruwrrww8w7kVCCCCZCCCA",
"dgjjjhjvljjjjjjjvzvvvvvvvvvjczccxxzzzzzzzzssurrrww886lBCVCVVCCCC",
"gjjjljzcljzhhhzzvzxvvvvvvvVvvcvvvvvccccccsssuuywqq776mmBBVmVmCVV",
"gjjjzzjjzzzzhhfjzxxvvvvVvvvvvvcvvcczccccssssuuuwww8q,lmmllmVVlmV",
"azjjczzcvzvccccvxvvvCvvvvCCvvVvcvccccczssssssuuyw8779lBBBVVmVmlV",
"ifaafhffgafjffzfhzzzzzhzvvvvckczzcszzzssuuruuuyww875,mVmmmmmmmll"
};
